<svg xmlns="http://www.w3.org/2000/svg" viewBox="0 0 128 128">
  <defs>
    <linearGradient id="g" x1="0" x2="1" y1="0" y2="1">
      <stop offset="0%" stop-color="#7c3aed"/>
      <stop offset="100%" stop-color="#06b6d4"/>
    </linearGradient>
  </defs>
  <rect width="128" height="128" rx="28" fill="#09090f"/>
  <path d="M34 43c0-9.4 7.6-17 17-17h26c10.5 0 19 8.5 19 19 0 7.1-3.9 13.2-9.7 16.5 7.4 3.2 12.7 10.5 12.7 19 0 11.5-9.3 20.8-20.8 20.8H51c-9.4 0-17-7.6-17-17V43Z" fill="url(#g)"/>
  <path d="M51 40h24c4.4 0 8 3.6 8 8s-3.6 8-8 8H51V40Zm0 30h28c5 0 9 4 9 9s-4 9-9 9H51V70Z" fill="#fff"/>
</svg>
